<?xml version="1.0" encoding="UTF-8"?>
<!DOCTYPE svg PUBLIC "-//W3C//DTD SVG 1.1//EN" "http://www.w3.org/Graphics/SVG/1.1/DTD/svg11.dtd">
<!-- Creator: CorelDRAW -->
<svg xmlns="http://www.w3.org/2000/svg" xml:space="preserve" width="512px" height="512px" style="shape-rendering:geometricPrecision; text-rendering:geometricPrecision; image-rendering:optimizeQuality; fill-rule:evenodd; clip-rule:evenodd"
viewBox="0 0 512 512"
 xmlns:xlink="http://www.w3.org/1999/xlink">
 <defs>
  <style type="text/css">
   <![CDATA[
    .fil0 {fill:url(#id0);fill-rule:nonzero}
   ]]>
  </style>
  <linearGradient id="id0" gradientUnits="userSpaceOnUse" x1="51.612" y1="254.909" x2="460.389" y2="254.909">
   <stop offset="0" style="stop-color:#990000"/>
   <stop offset="1" style="stop-color:red"/>
  </linearGradient>
 </defs>
 <g id="Layer_x0020_1">
  <metadata id="CorelCorpID_0Corel-Layer"/>
  <path class="fil0" d="M271.395 286.789c-40.6111,0 -38.2773,4.05119 -38.2773,-19.5556 -2.08111,-0.831499 -3.74411,-1.66418 -5.82521,-2.49568 -16.865,16.865 -12.0898,15.7997 -41.1899,-13.3134 -6.66971,-6.67325 3.97796,-13.9642 8.73782,-18.7241 -0.831499,-2.08111 -1.66418,-3.74411 -2.49568,-5.82521 -23.6079,0 -19.5556,2.33505 -19.5556,-38.2761 0,-9.84216 13.1587,-7.48939 19.5556,-7.48939 0.831499,-1.66418 1.66418,-3.74411 2.49568,-5.40828 -16.4162,-16.4162 -15.163,-11.8807 13.7304,-40.7741 6.81971,-6.81971 14.1638,4.38663 18.3071,8.73782 2.07993,-0.831499 3.74411,-1.66418 5.82403,-2.49568 -0.00236221,-23.1438 -2.1319,-19.1398 38.2773,-19.1398 9.84216,0 7.48939,13.1575 7.48939,19.5544 2.08111,0.831499 3.74411,1.66418 5.40828,2.49568 16.6571,-16.6548 11.6374,-15.8233 40.7741,13.3146 6.82797,6.82797 -3.8693,14.2701 -8.31971,18.7217 0.831499,1.66418 1.66418,3.74411 2.07993,5.40828 23.6044,0.00236221 19.5532,-2.3315 19.5532,38.2785 0,9.84216 -13.1587,7.48939 -19.5544,7.48939 -0.831499,1.66418 -1.24725,3.74411 -2.07993,5.82521 16.878,16.878 15.7855,12.0898 -13.3146,41.1887 -6.88703,6.88703 -14.6327,-4.23072 -19.1386,-8.73664 -1.66418,0.831499 -3.74411,1.66418 -5.40828,2.49568 -0.00118111,6.21616 2.34804,18.7241 -7.07364,18.7241zm-15.3934 225.087c-26.4875,0 -48.1797,-21.1512 -49.0631,-47.4297l-20.0032 0c-22.1245,0 -32.3174,-27.2398 -17.4213,-42.2293 -13.6489,-13.8083 -6.30474,-37.9513 12.7902,-41.771 -1.7256,-113.635 -47.7935,-110.423 -47.7935,-178.119 0,-66.9852 54.5033,-121.489 121.49,-121.489 66.9852,0 121.489,54.5033 121.489,121.489 0,67.1766 -45.6675,66.1856 -47.3765,178.175 19.2449,3.98978 26.4887,27.9698 12.5847,41.7143 15.4146,15.2339 4.32521,42.2304 -17.6304,42.2304l-20.0032 0c-0.882286,26.2784 -22.5768,47.4297 -49.062,47.4297zm69.0652 -61.9915c13.063,0 14.0646,-20.3871 0,-20.3871l-138.132 0c-13.239,0 -12.893,20.3871 0,20.3871l138.132 0zm-103.559 14.5619c0.862207,18.3579 15.913,32.8678 34.493,32.8678 18.58,0 33.6308,-14.5099 34.493,-32.8678l-68.986 0zm-32.0847 -49.5108l133.163 -0.00118111c21.4938,-1.80237 11.6705,-22.3985 2.4319,-20.8016 -5.14254,0.889373 -133.035,0.877562 -138.003,-0.00118111 -5.37285,-0.95079 -10.0654,5.22994 -10.0654,10.4008 0,10.0004 9.8646,9.49491 12.4737,10.4032zm-12.0567 -342.001c-2.49568,0 -4.99254,-1.24843 -6.24096,-3.74411l-18.3071 -32.0363c-4.7008,-7.86026 8.01144,-15.7441 12.8977,-7.07246l18.3071 32.0351c2.88426,4.82482 -1.11496,10.8177 -6.65671,10.8177zm-57.8329 57.8317c-1.24725,0 -2.49568,-0.415749 -3.74292,-0.831499l-31.6218 -18.7217c-8.06814,-4.90986 -0.42756,-17.2997 7.48939,-12.4819l31.6206 18.7229c6.26577,3.81143 3.40513,13.3122 -3.74529,13.3122zm-21.2186 78.6357l-37.03 0c-9.67208,0 -9.67208,-14.9788 0,-14.9788l37.03 0c9.67326,0 9.67326,14.9788 0,14.9788zm236.737 -136.467c-5.30789,0 -9.2457,-5.70592 -6.65671,-10.8177l18.3071 -32.0351c4.81064,-8.04569 17.2371,-1.49646 12.8977,7.07246l-18.3071 32.0363c-1.24843,2.49568 -3.74411,3.74411 -6.24096,3.74411zm-79.0502 -21.2198c-4.16104,0 -7.48939,-3.32836 -7.48939,-7.48939l0 -36.6131c0,-9.67208 14.9788,-9.67208 14.9788,0l0 37.03c0,3.74529 -3.32954,7.07246 -7.48939,7.07246zm-59.0813 328.271l118.576 0c2.11772,-115.069 47.4309,-117.626 47.4309,-178.073 0,-59.0801 -47.8466,-106.928 -106.927,-106.928 -59.0801,0 -106.928,47.8478 -106.928,106.928 0,60.9262 45.7123,62.0494 47.8478,178.073zm253.796 -170.584l-37.0289 0c-9.67444,0 -9.67444,-14.9788 0,-14.9788l37.0289 0c9.67326,0 9.67326,14.9788 0,14.9788zm-58.2474 -78.6357c-6.97561,0 -10.0406,-9.92247 -3.74529,-13.7292l32.0363 -18.7217c7.93113,-4.79529 15.5705,7.59451 7.48939,12.4807 -4.71261,2.84883 -32.3918,19.9701 -35.7804,19.9701zm-136.467 113.169c-22.0512,0 -39.5257,-17.8914 -39.5257,-39.5257 0,-21.6343 17.8902,-39.5245 39.5257,-39.5245 22.0512,0 39.5245,17.8902 39.5245,39.5245 0,21.6343 -17.4733,39.5257 -39.5245,39.5257zm0 -64.4896c-13.7304,0 -24.9639,11.2323 -24.9639,24.9627 0,13.7304 11.6492,24.9639 24.9639,24.9639 13.7304,0 24.9627,-11.2335 24.9627,-24.9639 0,-14.1449 -10.8177,-24.9627 -24.9627,-24.9627zm8.32089 92.7818c0,-22.7717 1.17874,-12.1394 17.8902,-22.467 6.24569,-3.85985 12.2044,4.52364 16.226,8.32089l11.6492 -11.6492c-16.0158,-16.0158 -7.74451,-9.57877 -3.32718,-28.2922 1.81654,-7.69372 11.2217,-5.82521 17.0575,-5.8264l0 -16.226c-22.1753,0 -12.2315,-1.12914 -22.0512,-17.8902 -3.74765,-6.39569 4.3323,-11.8217 8.32089,-15.8103l-11.6492 -11.6492c-4.15513,4.15513 -9.98625,12.9166 -16.643,8.32089 -7.82365,-5.4012 -17.0575,-3.85867 -17.0575,-12.0662l0 -9.98507 -16.226 0c0,22.4942 -1.29095,12.3307 -17.8902,22.0512 -6.59293,3.86104 -12.1335,-4.22718 -16.2272,-8.32089l-11.6492 11.6492c14.8678,14.8701 9.15239,9.79373 2.91261,28.2922 -2.47205,7.32758 -11.0965,5.40828 -17.0587,5.40828l0 16.226c21.9355,0 12.7111,0.831499 22.4658,18.306 3.57639,6.40514 -4.39608,11.8855 -8.32089,15.8103l11.6492 11.6492c15.4087,-15.4063 9.75357,-8.45908 28.708,-2.91261 7.12679,2.08465 5.40947,11.3303 5.41065,17.0611l15.8103 0z"/>
 </g>
</svg>
