<?xml version="1.0" encoding="UTF-8"?>
<!DOCTYPE svg PUBLIC "-//W3C//DTD SVG 1.1//EN" "http://www.w3.org/Graphics/SVG/1.1/DTD/svg11.dtd">
<!-- Creator: CorelDRAW -->
<svg xmlns="http://www.w3.org/2000/svg" xml:space="preserve" width="512px" height="512px" style="shape-rendering:geometricPrecision; text-rendering:geometricPrecision; image-rendering:optimizeQuality; fill-rule:evenodd; clip-rule:evenodd"
viewBox="0 0 512 512"
 xmlns:xlink="http://www.w3.org/1999/xlink">
 <defs>
  <style type="text/css">
   <![CDATA[
    .fil0 {fill:url(#id0);fill-rule:nonzero}
   ]]>
  </style>
  <linearGradient id="id0" gradientUnits="userSpaceOnUse" x1="13.1622" y1="246.491" x2="492.989" y2="246.491">
   <stop offset="0" style="stop-color:#990000"/>
   <stop offset="1" style="stop-color:red"/>
  </linearGradient>
 </defs>
 <g id="Layer_x0020_1">
  <metadata id="CorelCorpID_0Corel-Layer"/>
  <path class="fil0" d="M187.185 333.731c-99.0747,0 -174.023,-83.679 -166.839,-179.738 3.32954,-44.5182 24.1324,-84.8755 57.8329,-113.583 69.8967,-59.9128 175.159,-52.0076 235.489,17.8914 58.2947,68.0104 51.9828,169.89 -12.7878,230.531l29.8997 34.7222c20.5194,-13.004 48.1596,-9.54216 64.4364,9.76066l95.2775 111.088c2.49568,2.91261 2.08111,7.48939 -0.831499,10.402l-64.9053 55.7517c-2.72835,1.813 -7.46105,1.92875 -10.4032,-1.24725l-95.2775 -111.088c-16.2638,-18.7749 -15.5847,-47.419 0.394489,-65.1864l-29.7733 -34.5745c-29.3989,23.1686 -65.4049,35.2714 -102.512,35.2714zm-0.415749 -104.015c-34.5344,0 -62.4096,-28.2922 -62.4096,-62.8254 0,-34.5332 27.8753,-62.4085 62.4096,-62.4085 34.5332,0 62.8254,27.8753 62.8254,62.4085 -0.41693,34.5332 -28.2922,62.8254 -62.8254,62.8254zm0 -110.671c-26.2123,0 -47.8478,21.6343 -47.8478,47.8466 0,26.628 21.6343,48.2624 47.8478,48.2624 26.6269,0 48.2624,-21.6343 48.2624,-48.2624 -0.415749,-26.2123 -21.6355,-47.8466 -48.2624,-47.8466zm17.4733 170.168l-34.532 0c-3.74411,0 -6.65671,-2.91261 -7.07246,-6.24096l-4.16104 -30.3721c-11.6504,-3.74411 -22.4682,-9.98507 -31.6218,-18.3071l-27.8753 12.0662c-3.32836,1.24843 -7.48939,0 -9.15357,-2.91261l-17.4745 -29.9564c-1.66418,-3.32836 -0.831499,-7.07246 2.08111,-9.56932l24.5469 -18.3071c-2.2382,-10.441 -2.2382,-26.1733 0,-36.6143l-24.5469 -18.3071c-2.91261,-2.08111 -3.74411,-6.24096 -2.08111,-9.56932l17.4745 -29.5406c1.66418,-3.32836 5.82521,-4.57679 9.15357,-2.91261l27.8753 11.6492c9.15357,-8.31971 19.9713,-14.5619 31.6218,-18.306l3.74292 -29.9576c0.41693,-3.74292 3.74411,-6.24096 7.07364,-6.24096l34.9489 0.00354332c3.74411,0 6.65789,2.91261 7.07364,6.24096l3.74292 29.9576c11.6504,3.74292 22.4682,10.4008 31.6218,18.306l28.2922 -11.6492c3.32836,-1.24725 7.07246,0 9.15357,2.91261l17.0575 29.5406c1.66418,3.32836 0.831499,7.07246 -2.08111,9.56932l-24.1288 17.889c2.67875,14.2985 2.83465,22.4457 0,36.6143l24.1312 18.3071c2.91261,2.08111 3.74411,6.24096 2.08111,9.5705l-17.0575 29.9564c-1.66536,3.32836 -5.82521,4.57679 -9.15357,2.91143l-28.2922 -12.065c-9.15357,7.90514 -19.9713,14.1449 -31.6218,18.3071l-3.74292 30.3721c-0.418112,4.15867 -3.74647,6.65435 -7.07601,6.65435zm-28.291 -14.5619l21.6355 0 3.32836 -28.7091c1.35355,-10.4469 16.8556,-3.54214 39.1088,-25.7954 2.08111,-2.08111 5.40828,-2.91261 7.90514,-1.66418l26.628 11.2323 10.8177 -18.7217c-38.6883,-29.543 -22.467,-13.4599 -22.467,-44.9352 0,-31.2391 -15.7796,-15.313 22.467,-44.5182l-10.8177 -18.7217 -26.628 11.2323c-9.3768,3.98859 -10.4327,-12.2433 -41.6056,-21.2186 -2.91261,-0.831499 -4.99254,-3.32954 -5.40828,-6.24215l-3.32836 -28.291 -21.6355 0.00236221 -3.74411 29.5395c-1.42323,10.5496 -16.5603,3.24568 -39.11,25.7965 -2.07993,2.07993 -4.99254,2.49568 -7.90514,1.66418l-26.628 -11.2335 -10.8177 18.7229c37.5875,28.7021 22.8839,13.0016 22.8839,44.5182 0,31.5627 14.3339,16.5154 -22.8839,44.934l10.8177 18.7229 26.628 -11.2335c8.93625,-4.11261 12.0166,13.0512 41.6056,21.2198 2.91261,0.831499 4.99372,3.32836 5.40947,6.24096l3.74411 27.4584zm246.307 202.205c-2.08111,0 -4.15986,-0.831499 -5.40828,-2.49568l-79.0514 -92.366c-5.9386,-6.93545 4.38899,-16.9654 11.2323,-9.56932l79.0526 92.3649c3.78426,4.4197 0.807877,12.0662 -5.82521,12.0662zm-88.1944 -138.141c-7.04412,7.04412 -11.5559,13.376 -12.4926,24.1394 -0.83268,9.5705 2.07993,18.7217 8.31971,25.7965l90.7019 105.679 54.0887 -46.1836 -90.7007 -105.679c-12.5433,-14.3126 -34.5332,-16.2449 -49.9171,-3.75237zm-31.6288 -270.847c-54.1903,-63.4596 -150.741,-70.7872 -214.688,-16.226 -64.1577,54.7407 -71.2857,150.577 -16.6418,214.687 53.8395,63.1667 150.122,71.4238 213.576,17.5902l2.77442 -2.40828c62.112,-54.7513 69.0026,-150.135 14.98,-213.643z"/>
 </g>
</svg>
